<svg width="50" height="50" viewBox="0 0 50 50" fill="none" xmlns="http://www.w3.org/2000/svg">
<path d="M11.5518 7H38.4648C40.4506 7.00026 42.0136 8.77364 41.9424 10.7949C41.851 13.2526 41.961 16.5156 42.7871 19.2275C43.5175 21.6325 44.8081 23.5578 47 24.1533V24.8447C44.8016 25.4396 43.5165 27.3678 42.7793 29.7705V29.7725C41.9529 32.4854 41.8507 35.7489 41.9336 38.2012L41.9346 38.2031C42.0069 40.2193 40.4486 42 38.4561 42H11.5518C9.56592 41.9999 8.00301 40.2264 8.07422 38.2051C8.16564 35.7474 8.05556 32.4844 7.22949 29.7725L7.22852 29.7705L7.06348 29.2686C6.30331 27.1001 5.0434 25.3972 3 24.8447V24.1553C5.20491 23.5613 6.49077 21.6338 7.22852 19.2295L7.22949 19.2275C8.05585 16.5146 8.15714 13.251 8.07422 10.7988V10.7969L8.07227 10.6084C8.09981 8.67102 9.62157 7.00012 11.5518 7ZM16.9854 35.3428H25.999C28.275 35.3427 30.2271 34.7813 31.6299 33.6328C33.0578 32.4636 33.8086 30.7721 33.8086 28.7666C33.8086 26.5025 32.661 24.6926 30.8535 23.7129C32.0561 22.7158 32.8261 21.1937 32.8262 19.5645C32.8262 17.7957 32.125 16.2817 30.8623 15.2275C29.6172 14.1881 27.9042 13.6573 25.958 13.6572H16.9854V35.3428ZM25.1797 26.3633C26.5529 26.3633 27.4244 26.6226 27.9287 26.9854C28.3758 27.3069 28.6406 27.7853 28.6406 28.5771C28.6405 29.3873 28.3737 29.8837 27.9434 30.2119C27.4673 30.575 26.6489 30.8398 25.3604 30.8398H22.0791V26.3633H25.1797ZM25.2051 18.1602C26.1944 18.1602 26.8209 18.3848 27.1807 18.6729C27.5066 18.934 27.7246 19.335 27.7246 19.9941C27.7245 20.6827 27.4802 21.1291 27.0566 21.4395C26.5866 21.7838 25.7841 22.0382 24.5547 22.042H22.0791V18.1602H25.2051Z" fill="#A269CE" stroke="#7427A2" stroke-width="2"/>
</svg>
