<svg width="50" height="50" viewBox="0 0 50 50" fill="none" xmlns="http://www.w3.org/2000/svg">
<path d="M0 0H50V50H0V0Z" fill="#8FD2E4"/>
<path d="M42 7L37.3333 35.75L21.051 42L7 35.75L8.42917 28.3438H14.4083L13.825 31.5156L22.3125 34.9844L32.0906 31.5156L33.4615 23.9297H9.15104L10.3177 17.5234H34.65L35.4156 13.4062H11.1052L12.2938 7H42Z" fill="#F5F5F5"/>
<path d="M49.25 0.75V49.25H0.75V0.75H49.25ZM11.5566 6.86328L10.3682 13.2695L10.2031 14.1562H34.5137L34.0273 16.7734H9.69238L9.58008 17.3887L8.41309 23.7949L8.25195 24.6797H32.5635L31.4297 30.9531L22.3311 34.1807L14.6719 31.0518L15.1455 28.4795L15.3086 27.5938H7.80957L7.69238 28.2012L6.26367 35.6074L6.15039 36.1934L6.69531 36.4355L20.7461 42.6855L21.0303 42.8115L21.3193 42.7002L37.6025 36.4502L38.0049 36.2959L38.0732 35.8701L42.7402 7.12012L42.8818 6.25H11.6699L11.5566 6.86328ZM41.1182 7.75L36.6611 35.2041L21.0713 41.1875L7.84863 35.3066L9.04883 29.0938H13.5078L13.0869 31.3799L12.9775 31.9795L13.541 32.21L22.0283 35.6787L22.2939 35.7871L22.5635 35.6914L32.3418 32.2227L32.751 32.0771L32.8291 31.6494L34.1992 24.0635L34.3594 23.1797H10.0498L10.9434 18.2734H35.2734L35.3877 17.6602L36.1533 13.543L36.3184 12.6562H12.0068L12.917 7.75H41.1182Z" stroke="#7427A2" stroke-width="1.5"/>
</svg>
