<svg width="52" height="50" viewBox="0 0 52 50" fill="none" xmlns="http://www.w3.org/2000/svg">
<g clip-path="url(#clip0_22_69)">
<path d="M-2 -1H53V54H-2V-1Z" fill="#8FD2E4"/>
<path d="M44.2 6.7L39.0667 38.325L21.1561 45.2L5.7 38.325L7.27208 30.1781H13.8492L13.2075 33.6672L22.5438 37.4828L33.2997 33.6672L34.8076 25.3227H8.06615L9.34948 18.2758H36.115L36.9572 13.7469H10.2157L11.5231 6.7H44.2Z" fill="#F5F5F5"/>
<path d="M52.75 -0.75V53.75H-1.75V-0.75H52.75ZM11.2773 6.6543L9.96973 13.7012L9.91504 13.9971H36.6562L35.9072 18.0254H9.14062L9.10352 18.2314L7.82031 25.2783L7.7666 25.5723H34.5088L33.0791 33.4795L22.5498 37.2148L13.4893 33.5117L14.0947 30.2236L14.1494 29.9277H7.06543L7.02637 30.1309L5.4541 38.2773L5.41699 38.4727L5.59863 38.5537L21.0547 45.4287L21.1494 45.4707L21.2461 45.4336L39.1562 38.5586L39.29 38.5068L39.3135 38.3652L44.4463 6.74023L44.4941 6.4502H11.3154L11.2773 6.6543ZM43.9062 6.9502L38.8428 38.1426L21.1631 44.9287L5.98242 38.1768L7.47852 30.4277H13.5488L12.9619 33.6221L12.9248 33.8213L13.1133 33.8984L22.4492 37.7139L22.5371 37.75L22.627 37.7188L33.3828 33.9023L33.5195 33.8545L33.5459 33.7119L35.0537 25.3672L35.1064 25.0723H8.36621L9.55859 18.5254H36.3232L36.3604 18.3213L37.2031 13.793L37.2578 13.4971H10.5166L11.7305 6.9502H43.9062Z" stroke="#7427A2" stroke-width="0.5"/>
</g>
<defs>
<clipPath id="clip0_22_69">
<rect width="52" height="50" fill="white"/>
</clipPath>
</defs>
</svg>
