<svg width="500" height="500" viewBox="0 0 500 500" fill="none" xmlns="http://www.w3.org/2000/svg">
<rect x="7" y="7" width="486" height="486" rx="60" stroke="#640069" stroke-width="14"/>
<rect x="131" y="67" width="107" height="106" fill="#E96464"/>
<rect x="131" y="327" width="107" height="106" fill="#8EC587"/>
<rect x="262" y="197" width="107" height="106" fill="#B8E1ED"/>
<rect x="131" y="197" width="107" height="106" fill="#CE9CC7"/>
<rect x="262" y="67" width="107" height="106" fill="#F6C18C"/>
<path d="M106 120.463C106 77.6887 140.706 43 183.501 43H316.499C359.294 43 394 77.6887 394 120.463C394 147.551 380.085 171.405 359.052 185.232C380.085 199.059 394 222.912 394 250C394 292.775 359.294 327.463 316.499 327.463H314.8C294.737 327.463 276.454 319.862 262.701 307.329V378.728C262.701 422.069 227.106 457 183.906 457C141.191 457 106 422.392 106 379.537C106 352.449 119.915 328.595 140.948 314.768C119.915 300.941 106 277.088 106 250C106 222.912 119.915 199.059 140.948 185.232C119.915 171.405 106 147.551 106 120.463ZM237.299 197.927H183.501C154.701 197.927 131.402 221.214 131.402 250C131.402 278.624 154.539 301.912 183.178 302.073H237.299V197.927ZM262.701 250C262.701 278.786 286 302.073 314.8 302.073H316.499C345.299 302.073 368.598 278.786 368.598 250C368.598 221.214 345.299 197.927 316.499 197.927H314.8C286 197.927 262.701 221.214 262.701 250ZM183.501 327.463H183.178C154.539 327.625 131.402 350.913 131.402 379.537C131.402 408.161 155.025 431.61 183.906 431.61C213.272 431.61 237.299 407.838 237.299 378.647V327.382H183.501V327.463ZM183.501 68.3898C154.701 68.3898 131.402 91.6774 131.402 120.463C131.402 149.249 154.701 172.537 183.501 172.537H237.299V68.3898H183.501ZM262.701 172.537H316.499C345.299 172.537 368.598 149.249 368.598 120.463C368.598 91.6774 345.299 68.3898 316.499 68.3898H262.701V172.537Z" fill="#640069"/>
</svg>