<svg width="50" height="50" viewBox="0 0 50 50" fill="none" xmlns="http://www.w3.org/2000/svg">
<rect x="1.5" y="1.5" width="47" height="47" stroke="#640069" stroke-width="3"/>
<rect x="13.1" y="6.69995" width="10.7" height="10.6" fill="#E96464"/>
<rect x="13.1" y="32.7" width="10.7" height="10.6" fill="#8EC587"/>
<rect x="26.2" y="19.7" width="10.7" height="10.6" fill="#B8E1ED"/>
<rect x="13.1" y="19.7" width="10.7" height="10.6" fill="#CE9CC7"/>
<rect x="26.2" y="6.69995" width="10.7" height="10.6" fill="#F6C18C"/>
<path d="M10.6 12.0464C10.6 7.76892 14.0705 4.30005 18.3501 4.30005H31.6499C35.9294 4.30005 39.4 7.76892 39.4 12.0464C39.4 14.7552 38.0085 17.1405 35.9051 18.5232C38.0085 19.9059 39.4 22.2913 39.4 25C39.4 29.2775 35.9294 32.7464 31.6499 32.7464H31.48C29.4737 32.7464 27.6454 31.9863 26.2701 30.733V37.8729C26.2701 42.2069 22.7105 45.7 18.3905 45.7C14.1191 45.7 10.6 42.2393 10.6 37.9537C10.6 35.2449 11.9914 32.8596 14.0948 31.4769C11.9914 30.0942 10.6 27.7088 10.6 25C10.6 22.2913 11.9914 19.9059 14.0948 18.5232C11.9914 17.1405 10.6 14.7552 10.6 12.0464ZM23.7299 19.7927H18.3501C15.4701 19.7927 13.1402 22.1215 13.1402 25C13.1402 27.8625 15.4539 30.1912 18.3177 30.2074H23.7299V19.7927ZM26.2701 25C26.2701 27.8786 28.6 30.2074 31.48 30.2074H31.6499C34.5299 30.2074 36.8597 27.8786 36.8597 25C36.8597 22.1215 34.5299 19.7927 31.6499 19.7927H31.48C28.6 19.7927 26.2701 22.1215 26.2701 25ZM18.3501 32.7464H18.3177C15.4539 32.7625 13.1402 35.0913 13.1402 37.9537C13.1402 40.8161 15.5024 43.1611 18.3905 43.1611C21.3272 43.1611 23.7299 40.7838 23.7299 37.8648V32.7383H18.3501V32.7464ZM18.3501 6.83903C15.4701 6.83903 13.1402 9.16778 13.1402 12.0464C13.1402 14.925 15.4701 17.2537 18.3501 17.2537H23.7299V6.83903H18.3501ZM26.2701 17.2537H31.6499C34.5299 17.2537 36.8597 14.925 36.8597 12.0464C36.8597 9.16778 34.5299 6.83903 31.6499 6.83903H26.2701V17.2537Z" fill="#640069"/>
</svg>
