<svg width="50" height="50" viewBox="0 0 50 50" fill="none" xmlns="http://www.w3.org/2000/svg">
<g clip-path="url(#clip0_22_69)">
<rect x="-2" y="-2" width="53" height="53" stroke="#640069" stroke-width="2"/>
<rect x="11.41" y="4.36987" width="11.77" height="11.66" fill="#E96464"/>
<rect x="11.41" y="32.97" width="11.77" height="11.66" fill="#8EC587"/>
<rect x="25.82" y="18.6699" width="11.77" height="11.66" fill="#B8E1ED"/>
<rect x="11.41" y="18.6699" width="11.77" height="11.66" fill="#CE9CC7"/>
<rect x="25.82" y="4.36987" width="11.77" height="11.66" fill="#F6C18C"/>
<path d="M8.65997 10.2509C8.65997 5.54573 12.4776 1.72998 17.1851 1.72998H31.8148C36.5224 1.72998 40.34 5.54573 40.34 10.2509C40.34 13.2306 38.8094 15.8545 36.4957 17.3755C38.8094 18.8964 40.34 21.5203 40.34 24.5C40.34 29.2052 36.5224 33.0209 31.8148 33.0209H31.628C29.4211 33.0209 27.4099 32.1849 25.8971 30.8062V38.6601C25.8971 43.4275 21.9816 47.27 17.2296 47.27C12.531 47.27 8.65997 43.4631 8.65997 38.749C8.65997 35.7694 10.1906 33.1455 12.5043 31.6245C10.1906 30.1035 8.65997 27.4796 8.65997 24.5C8.65997 21.5203 10.1906 18.8964 12.5043 17.3755C10.1906 15.8545 8.65997 13.2306 8.65997 10.2509ZM23.1028 18.7719H17.1851C14.0171 18.7719 11.4542 21.3335 11.4542 24.5C11.4542 27.6486 13.9993 30.2103 17.1495 30.2281H23.1028V18.7719ZM25.8971 24.5C25.8971 27.6664 28.46 30.2281 31.628 30.2281H31.8148C34.9828 30.2281 37.5457 27.6664 37.5457 24.5C37.5457 21.3335 34.9828 18.7719 31.8148 18.7719H31.628C28.46 18.7719 25.8971 21.3335 25.8971 24.5ZM17.1851 33.0209H17.1495C13.9993 33.0387 11.4542 35.6004 11.4542 38.749C11.4542 41.8977 14.0527 44.4771 17.2296 44.4771C20.4599 44.4771 23.1028 41.8621 23.1028 38.6512V33.012H17.1851V33.0209ZM17.1851 4.52286C14.0171 4.52286 11.4542 7.08449 11.4542 10.2509C11.4542 13.4174 14.0171 15.979 17.1851 15.979H23.1028V4.52286H17.1851ZM25.8971 15.979H31.8148C34.9828 15.979 37.5457 13.4174 37.5457 10.2509C37.5457 7.08449 34.9828 4.52286 31.8148 4.52286H25.8971V15.979Z" fill="#640069"/>
</g>
<defs>
<clipPath id="clip0_22_69">
<rect width="50" height="50" fill="white"/>
</clipPath>
</defs>
</svg>
