<svg width="50" height="50" viewBox="0 0 50 50" fill="none" xmlns="http://www.w3.org/2000/svg">
<g clip-path="url(#clip0_22_69)">
<path d="M-3 -3H52V52H-3V-3Z" fill="#DF896A"/>
<path d="M5.8 5.8L9.19911 38.8422L24.4513 43.2L39.8009 38.8422L43.2 5.8H5.8ZM35.8174 16.4774H17.916L18.3154 20.6014H35.4181L34.0935 32.9901L24.5584 35.2442V35.2692H24.4513L14.8383 32.9901L14.254 26.6622H18.8997L19.2406 29.8429L24.4513 31.0533L29.6815 29.8429L30.2658 24.6503H14.0105L12.7638 12.4953H36.2459L35.8174 16.4774Z" fill="white"/>
<path d="M-3 -3H52V52H-3V-3Z" stroke="#7427A2"/>
<path d="M5.8 5.8L9.19911 38.8422L24.4513 43.2L39.8009 38.8422L43.2 5.8H5.8ZM35.8174 16.4774H17.916L18.3154 20.6014H35.4181L34.0935 32.9901L24.5584 35.2442V35.2692H24.4513L14.8383 32.9901L14.254 26.6622H18.8997L19.2406 29.8429L24.4513 31.0533L29.6815 29.8429L30.2658 24.6503H14.0105L12.7638 12.4953H36.2459L35.8174 16.4774Z" stroke="#7427A2"/>
</g>
<defs>
<clipPath id="clip0_22_69">
<rect width="50" height="50" fill="white"/>
</clipPath>
</defs>
</svg>
