<svg width="52" height="52" viewBox="0 0 52 52" fill="none" xmlns="http://www.w3.org/2000/svg">
<path d="M0.75 0.75H50.75V50.75H0.75V0.75Z" fill="#DF896A"/>
<path d="M8.75 8.75L11.8401 38.7884L25.7057 42.75L39.6599 38.7884L42.75 8.75H8.75ZM36.0385 18.4567H19.7646L20.1276 22.2058H35.6755L34.4714 33.4683L25.8031 35.5174V35.5402H25.7057L16.9667 33.4683L16.4354 27.7156H20.6589L20.9688 30.6071L25.7057 31.7076L30.4604 30.6071L30.9917 25.8866H16.2141L15.0807 14.8366H36.4281L36.0385 18.4567Z" fill="white"/>
<path d="M0.75 0.75H50.75V50.75H0.75V0.75Z" stroke="#7427A2" stroke-width="1.5"/>
<path d="M8.75 8.75L11.8401 38.7884L25.7057 42.75L39.6599 38.7884L42.75 8.75H8.75ZM36.0385 18.4567H19.7646L20.1276 22.2058H35.6755L34.4714 33.4683L25.8031 35.5174V35.5402H25.7057L16.9667 33.4683L16.4354 27.7156H20.6589L20.9688 30.6071L25.7057 31.7076L30.4604 30.6071L30.9917 25.8866H16.2141L15.0807 14.8366H36.4281L36.0385 18.4567Z" stroke="#7427A2" stroke-width="1.5"/>
</svg>
