<svg width="50" height="50" viewBox="0 0 50 50" fill="none" xmlns="http://www.w3.org/2000/svg">
<rect width="50" height="50" fill="#FAD24D"/>
<rect x="23.8594" y="0.640625" width="1.28125" height="12.5393" rx="0.640625" stroke="#640069" stroke-width="1.28125"/>
<path d="M24.5 19.8462C28.2118 19.8462 31.1873 22.7917 31.1875 26.3843C31.1875 29.977 28.212 32.9233 24.5 32.9233C20.788 32.9233 17.8125 29.977 17.8125 26.3843C17.8127 22.7917 20.7882 19.8462 24.5 19.8462Z" stroke="#640069" stroke-width="2"/>
<mask id="path-4-inside-1_5_60" fill="white">
<path d="M45 28.8975C45 26.2576 44.4698 23.6435 43.4395 21.2046C42.4093 18.7656 40.8993 16.5495 38.9957 14.6828C37.0921 12.8161 34.8322 11.3354 32.345 10.3251C29.8578 9.31489 27.1921 8.79492 24.5 8.79492C21.8079 8.79492 19.1422 9.31489 16.655 10.3251C14.1678 11.3354 11.9079 12.8161 10.0043 14.6828C8.10071 16.5495 6.59069 18.7656 5.56047 21.2046C4.53025 23.6435 4 26.2576 4 28.8975L24.5 28.8975H45Z"/>
</mask>
<path d="M45 28.8975C45 26.2576 44.4698 23.6435 43.4395 21.2046C42.4093 18.7656 40.8993 16.5495 38.9957 14.6828C37.0921 12.8161 34.8322 11.3354 32.345 10.3251C29.8578 9.31489 27.1921 8.79492 24.5 8.79492C21.8079 8.79492 19.1422 9.31489 16.655 10.3251C14.1678 11.3354 11.9079 12.8161 10.0043 14.6828C8.10071 16.5495 6.59069 18.7656 5.56047 21.2046C4.53025 23.6435 4 26.2576 4 28.8975L24.5 28.8975H45Z" fill="#FFEDB1" stroke="#640069" stroke-width="4" mask="url(#path-4-inside-1_5_60)"/>
</svg>
