<svg width="50" height="50" viewBox="0 0 50 50" fill="none" xmlns="http://www.w3.org/2000/svg">
<rect width="50" height="50" fill="#9B4DFA"/>
<rect x="23.8594" y="0.640625" width="1.28125" height="12.8125" rx="0.640625" stroke="#640069" stroke-width="1.28125"/>
<circle cx="24.5" cy="26.9062" r="6.6875" stroke="#640069" stroke-width="2"/>
<mask id="path-4-inside-1_5_61" fill="white">
<path d="M45 29.4688C45 26.7767 44.4698 24.1109 43.4395 21.6237C42.4093 19.1366 40.8993 16.8767 38.9957 14.9731C37.0921 13.0695 34.8322 11.5594 32.345 10.5292C29.8578 9.499 27.1921 8.96875 24.5 8.96875C21.8079 8.96875 19.1422 9.499 16.655 10.5292C14.1678 11.5594 11.9079 13.0695 10.0043 14.9731C8.10071 16.8767 6.59069 19.1366 5.56047 21.6237C4.53025 24.1109 4 26.7767 4 29.4688L24.5 29.4688H45Z"/>
</mask>
<path d="M45 29.4688C45 26.7767 44.4698 24.1109 43.4395 21.6237C42.4093 19.1366 40.8993 16.8767 38.9957 14.9731C37.0921 13.0695 34.8322 11.5594 32.345 10.5292C29.8578 9.499 27.1921 8.96875 24.5 8.96875C21.8079 8.96875 19.1422 9.499 16.655 10.5292C14.1678 11.5594 11.9079 13.0695 10.0043 14.9731C8.10071 16.8767 6.59069 19.1366 5.56047 21.6237C4.53025 24.1109 4 26.7767 4 29.4688L24.5 29.4688H45Z" fill="#B160B8" stroke="#640069" stroke-width="4" mask="url(#path-4-inside-1_5_61)"/>
</svg>
