<svg width="50" height="50" viewBox="0 0 50 50" fill="none" xmlns="http://www.w3.org/2000/svg">
<g clip-path="url(#clip0_22_69)">
<rect width="50" height="50" fill="#D273CB"/>
<path d="M37.1311 27.1172C36.0322 27.1172 34.9443 27.4526 33.9602 28.1015C33.6376 27.2339 33.3041 26.4756 33.2494 25.9069C33.1838 25.2434 33.1127 24.8497 33.1893 24.0623C33.2658 23.2748 33.6103 22.1593 33.6048 22.0791C33.5993 21.9989 33.5282 21.5979 32.823 21.5906C32.1177 21.5833 31.5109 21.7729 31.4398 22.0208C31.314 22.4728 31.2156 22.9394 31.15 23.4134C31.0243 24.2664 29.7395 27.3141 29.0123 28.9035C28.7718 28.2838 28.5695 27.737 28.5258 27.2995C28.4602 26.636 28.3891 26.2423 28.4656 25.4549C28.5422 24.6674 28.8866 23.5519 28.8811 23.4717C28.8757 23.3915 28.8046 22.9905 28.0993 22.9832C27.3941 22.9759 26.7872 23.1655 26.7161 23.4134C26.645 23.6613 26.5685 24.2445 26.4264 24.8059C26.2842 25.3674 24.573 30.4419 24.1247 31.7616C23.8951 32.4324 23.6982 32.9719 23.5561 33.3365C23.5342 33.3948 23.5178 33.4313 23.5069 33.4605C23.5233 33.424 23.5342 33.3875 23.5342 33.4021C23.4139 33.7156 23.3429 33.8906 23.3429 33.8906V33.8979C23.2499 34.1312 23.146 34.3427 23.0968 34.3427C23.064 34.3427 22.993 33.7302 23.1132 32.8917C23.3702 31.1273 23.9771 28.3859 23.9716 28.2911C23.9661 28.24 24.0864 27.7661 23.5725 27.5109C23.075 27.2703 22.8946 27.6713 22.8508 27.6713C22.8071 27.6713 22.7743 27.8172 22.7743 27.8172C22.7743 27.8172 23.3265 24.7257 21.7136 24.7257C20.7077 24.7257 19.3081 26.1985 18.6192 27.5328C18.1873 27.8463 17.2524 28.5244 16.2683 29.2462C15.8911 29.5233 15.5029 29.8076 15.1366 30.0774C15.1093 30.0409 15.0874 30.0045 15.0601 29.968C13.1028 27.1828 9.48899 25.2142 9.64208 21.4739C9.69675 20.1105 10.0521 16.5306 16.5909 12.1851C21.9487 8.62706 26.2295 9.60406 26.9676 11.7768C28.0282 14.8755 24.6769 20.6427 19.1113 21.4739C16.99 21.7874 15.8747 20.6938 15.5959 20.2855C15.3061 19.8553 15.2624 19.8334 15.153 19.9136C14.9726 20.0449 15.0874 20.424 15.153 20.65C15.317 21.226 16.0004 22.2468 17.1649 22.7572C18.1873 23.2019 20.6749 23.4498 23.6818 21.8968C27.0606 20.1615 29.6903 15.3276 28.9194 11.281C28.1321 7.16884 23.0203 5.82 18.1873 8.10939C15.3061 9.47282 12.1898 11.6164 9.94824 14.4089C7.28572 17.7336 6.85927 20.6282 7.03422 21.8385C7.65748 26.1329 12.0968 28.9327 13.8737 31.0034C13.7862 31.069 13.7042 31.1273 13.6277 31.1856C12.7365 31.7762 9.35231 34.1385 8.5049 36.6321C7.54814 39.461 8.66345 41.4879 9.39605 41.765C11.6813 42.6107 14.0213 41.0869 15.2788 38.5861C16.5362 36.0852 16.3831 32.8188 15.8036 31.3315C15.7981 31.3096 15.7872 31.295 15.7817 31.2731C16.0114 31.0909 16.2464 30.9086 16.4815 30.7263C16.9353 30.369 17.3782 30.0409 17.7663 29.7566C17.5476 30.544 17.3891 31.4919 17.3071 32.8626C17.2087 34.4666 17.7062 36.5446 18.3513 37.3612C18.6356 37.7184 18.98 37.7257 19.1933 37.7257C19.9477 37.7257 20.2867 36.8945 20.6639 35.903C21.1287 34.6926 21.5387 33.2855 21.5387 33.2855C21.5387 33.2855 21.0248 37.0914 22.4298 37.0914C22.9438 37.0914 23.4577 36.2092 23.6873 35.7571V35.7644C23.6873 35.7644 23.6982 35.7353 23.7256 35.6769C23.7802 35.5676 23.8076 35.502 23.8076 35.502V35.4801C24.0153 35.0062 24.4691 33.9198 25.1525 32.1262C26.0382 29.8076 26.8856 26.9131 26.8856 26.9131C26.9676 27.5474 27.0824 28.1744 27.2246 28.7942C27.3777 29.4868 27.7002 30.2451 27.9572 30.9815C27.7494 31.3606 27.6237 31.5794 27.6237 31.5794C27.6237 31.5866 27.6237 31.5866 27.6291 31.5939C27.4651 31.8856 27.2792 32.1991 27.0879 32.5053C26.3881 33.6136 25.5571 34.8822 25.4477 35.2468C25.3165 35.6769 25.3493 35.9977 25.6008 36.2456C25.7867 36.4352 26.1147 36.4644 26.4592 36.4279C27.0879 36.3696 27.5307 36.1654 27.744 36.0342C28.1376 35.8446 28.5094 35.5894 28.8483 35.2613C29.5317 34.5906 29.9472 33.6281 29.909 32.3595C29.8871 31.6596 29.7176 30.9596 29.5099 30.3034C29.57 30.1868 29.6356 30.0628 29.6957 29.9389C30.7782 27.8317 31.6147 25.5205 31.6147 25.5205C31.6967 26.1548 31.8115 26.7818 31.9537 27.4016C32.0849 27.9921 32.3419 28.6411 32.577 29.2754C31.5601 30.3763 30.9313 31.6523 30.7126 32.4907C30.3081 34.0437 30.6252 34.7437 31.2211 34.9041C31.489 34.977 31.8717 34.8093 32.156 34.6489C32.577 34.4593 32.9761 34.1896 33.3369 33.8396C34.0203 33.1688 34.6818 32.2283 34.6381 30.9523C34.6217 30.3763 34.5014 29.8003 34.3429 29.2462C35.2012 28.765 36.3165 28.5025 37.738 28.7213C40.7832 29.1952 41.3791 31.7325 41.2643 32.7897C41.1495 33.8469 40.5099 34.4375 40.2966 34.6124C40.0834 34.7874 40.0178 34.853 40.0342 34.9843C40.0615 35.1739 40.16 35.1666 40.3404 35.1228C40.5919 35.0645 41.9368 34.2625 41.9969 32.3012C42.0844 29.8222 40.2966 27.0953 37.1311 27.1172ZM13.6714 37.6674C12.6654 39.1329 11.2549 39.687 10.648 39.2204C9.99744 38.7173 10.2544 36.5592 11.4955 34.9989C12.2499 34.051 13.2231 33.1761 13.8682 32.6366C14.0158 32.5199 14.2291 32.3449 14.4915 32.1335C14.5352 32.097 14.5571 32.0824 14.5571 32.0824C14.6063 32.0387 14.661 32.0022 14.7156 31.9585C15.1694 34.175 14.732 36.129 13.6714 37.6674ZM21.0193 31.0034C20.6694 32.1481 19.9313 35.0645 19.483 34.9114C19.1003 34.7801 18.8652 32.5564 19.4065 30.369C19.6798 29.2681 20.2594 27.9557 20.6038 27.4453C21.156 26.6214 21.7628 26.3589 21.905 26.687C22.0963 27.1172 21.238 30.2888 21.0193 31.0034ZM27.0879 34.8676C26.9403 34.9697 26.8036 35.0353 26.738 34.9843C26.6888 34.9478 26.7981 34.8093 26.7981 34.8093C26.7981 34.8093 27.5581 33.7229 27.8588 33.2271C28.0337 32.9355 28.236 32.5928 28.4547 32.2137C28.4547 32.2501 28.4602 32.2866 28.4602 32.3303C28.4547 33.6354 27.5143 34.5177 27.0879 34.8676ZM31.7678 33.4459C31.6585 33.3438 31.6749 33.0011 32.0412 31.9366C32.1833 31.521 32.5113 30.8211 33.0799 30.1503C33.1455 30.4055 33.1783 30.668 33.1838 30.9377C33.1783 32.5782 32.2981 33.1907 31.7678 33.4459Z" fill="#F5F5F5" stroke="#7427A2" stroke-width="0.5"/>
</g>
<defs>
<clipPath id="clip0_22_69">
<rect width="50" height="50" fill="white"/>
</clipPath>
</defs>
</svg>
