<svg width="52" height="52" viewBox="0 0 52 52" fill="none" xmlns="http://www.w3.org/2000/svg">
<rect x="1" y="1" width="50" height="50" fill="#D273CB" stroke="#7427A2" stroke-width="2"/>
<path d="M38.1311 28.1172C37.0322 28.1172 35.9443 28.4526 34.9602 29.1015C34.6376 28.2339 34.3041 27.4756 34.2494 26.9069C34.1838 26.2434 34.1127 25.8497 34.1893 25.0623C34.2658 24.2748 34.6103 23.1593 34.6048 23.0791C34.5993 22.9989 34.5282 22.5979 33.823 22.5906C33.1177 22.5833 32.5109 22.7729 32.4398 23.0208C32.314 23.4728 32.2156 23.9394 32.15 24.4134C32.0243 25.2664 30.7395 28.3141 30.0123 29.9035C29.7718 29.2838 29.5695 28.737 29.5258 28.2995C29.4602 27.636 29.3891 27.2423 29.4656 26.4549C29.5422 25.6674 29.8866 24.5519 29.8811 24.4717C29.8757 24.3915 29.8046 23.9905 29.0993 23.9832C28.3941 23.9759 27.7872 24.1655 27.7161 24.4134C27.645 24.6613 27.5685 25.2445 27.4264 25.8059C27.2842 26.3674 25.573 31.4419 25.1247 32.7616C24.8951 33.4324 24.6982 33.9719 24.5561 34.3365C24.5342 34.3948 24.5178 34.4313 24.5069 34.4605C24.5233 34.424 24.5342 34.3875 24.5342 34.4021C24.4139 34.7156 24.3429 34.8906 24.3429 34.8906V34.8979C24.2499 35.1312 24.146 35.3427 24.0968 35.3427C24.064 35.3427 23.993 34.7302 24.1132 33.8917C24.3702 32.1273 24.9771 29.3859 24.9716 29.2911C24.9661 29.24 25.0864 28.7661 24.5725 28.5109C24.075 28.2703 23.8946 28.6713 23.8508 28.6713C23.8071 28.6713 23.7743 28.8172 23.7743 28.8172C23.7743 28.8172 24.3265 25.7257 22.7136 25.7257C21.7077 25.7257 20.3081 27.1985 19.6192 28.5328C19.1873 28.8463 18.2524 29.5244 17.2683 30.2462C16.8911 30.5233 16.5029 30.8076 16.1366 31.0774C16.1093 31.0409 16.0874 31.0045 16.0601 30.968C14.1028 28.1828 10.489 26.2142 10.6421 22.4739C10.6967 21.1105 11.0521 17.5306 17.5909 13.1851C22.9487 9.62706 27.2295 10.6041 27.9676 12.7768C29.0282 15.8755 25.6769 21.6427 20.1113 22.4739C17.99 22.7874 16.8747 21.6938 16.5959 21.2855C16.3061 20.8553 16.2624 20.8334 16.153 20.9136C15.9726 21.0449 16.0874 21.424 16.153 21.65C16.317 22.226 17.0004 23.2468 18.1649 23.7572C19.1873 24.2019 21.6749 24.4498 24.6818 22.8968C28.0606 21.1615 30.6903 16.3276 29.9194 12.281C29.1321 8.16884 24.0203 6.82 19.1873 9.10939C16.3061 10.4728 13.1898 12.6164 10.9482 15.4089C8.28572 18.7336 7.85927 21.6282 8.03422 22.8385C8.65748 27.1329 13.0968 29.9327 14.8737 32.0034C14.7862 32.069 14.7042 32.1273 14.6277 32.1856C13.7365 32.7762 10.3523 35.1385 9.5049 37.6321C8.54814 40.461 9.66345 42.4879 10.3961 42.765C12.6813 43.6107 15.0213 42.0869 16.2788 39.5861C17.5362 37.0852 17.3831 33.8188 16.8036 32.3315C16.7981 32.3096 16.7872 32.295 16.7817 32.2731C17.0114 32.0909 17.2464 31.9086 17.4815 31.7263C17.9353 31.369 18.3782 31.0409 18.7663 30.7566C18.5476 31.544 18.3891 32.4919 18.3071 33.8626C18.2087 35.4666 18.7062 37.5446 19.3513 38.3612C19.6356 38.7184 19.98 38.7257 20.1933 38.7257C20.9477 38.7257 21.2867 37.8945 21.6639 36.903C22.1287 35.6926 22.5387 34.2855 22.5387 34.2855C22.5387 34.2855 22.0248 38.0914 23.4298 38.0914C23.9438 38.0914 24.4577 37.2092 24.6873 36.7571V36.7644C24.6873 36.7644 24.6982 36.7353 24.7256 36.6769C24.7802 36.5676 24.8076 36.502 24.8076 36.502V36.4801C25.0153 36.0062 25.4691 34.9198 26.1525 33.1262C27.0382 30.8076 27.8856 27.9131 27.8856 27.9131C27.9676 28.5474 28.0824 29.1744 28.2246 29.7942C28.3777 30.4868 28.7002 31.2451 28.9572 31.9815C28.7494 32.3606 28.6237 32.5794 28.6237 32.5794C28.6237 32.5866 28.6237 32.5866 28.6291 32.5939C28.4651 32.8856 28.2792 33.1991 28.0879 33.5053C27.3881 34.6136 26.5571 35.8822 26.4477 36.2468C26.3165 36.6769 26.3493 36.9977 26.6008 37.2456C26.7867 37.4352 27.1147 37.4644 27.4592 37.4279C28.0879 37.3696 28.5307 37.1654 28.744 37.0342C29.1376 36.8446 29.5094 36.5894 29.8483 36.2613C30.5317 35.5906 30.9472 34.6281 30.909 33.3595C30.8871 32.6596 30.7176 31.9596 30.5099 31.3034C30.57 31.1868 30.6356 31.0628 30.6957 30.9389C31.7782 28.8317 32.6147 26.5205 32.6147 26.5205C32.6967 27.1548 32.8115 27.7818 32.9537 28.4016C33.0849 28.9921 33.3419 29.6411 33.577 30.2754C32.5601 31.3763 31.9313 32.6523 31.7126 33.4907C31.3081 35.0437 31.6252 35.7437 32.2211 35.9041C32.489 35.977 32.8717 35.8093 33.156 35.6489C33.577 35.4593 33.9761 35.1896 34.3369 34.8396C35.0203 34.1688 35.6818 33.2283 35.6381 31.9523C35.6217 31.3763 35.5014 30.8003 35.3429 30.2462C36.2012 29.765 37.3165 29.5025 38.738 29.7213C41.7832 30.1952 42.3791 32.7325 42.2643 33.7897C42.1495 34.8469 41.5099 35.4375 41.2966 35.6124C41.0834 35.7874 41.0178 35.853 41.0342 35.9843C41.0615 36.1739 41.16 36.1666 41.3404 36.1228C41.5919 36.0645 42.9368 35.2625 42.9969 33.3012C43.0844 30.8222 41.2966 28.0953 38.1311 28.1172ZM14.6714 38.6674C13.6654 40.1329 12.2549 40.687 11.648 40.2204C10.9974 39.7173 11.2544 37.5592 12.4955 35.9989C13.2499 35.051 14.2231 34.1761 14.8682 33.6366C15.0158 33.5199 15.2291 33.3449 15.4915 33.1335C15.5352 33.097 15.5571 33.0824 15.5571 33.0824C15.6063 33.0387 15.661 33.0022 15.7156 32.9585C16.1694 35.175 15.732 37.129 14.6714 38.6674ZM22.0193 32.0034C21.6694 33.1481 20.9313 36.0645 20.483 35.9114C20.1003 35.7801 19.8652 33.5564 20.4065 31.369C20.6798 30.2681 21.2594 28.9557 21.6038 28.4453C22.156 27.6214 22.7628 27.3589 22.905 27.687C23.0963 28.1172 22.238 31.2888 22.0193 32.0034ZM28.0879 35.8676C27.9403 35.9697 27.8036 36.0353 27.738 35.9843C27.6888 35.9478 27.7981 35.8093 27.7981 35.8093C27.7981 35.8093 28.5581 34.7229 28.8588 34.2271C29.0337 33.9355 29.236 33.5928 29.4547 33.2137C29.4547 33.2501 29.4602 33.2866 29.4602 33.3303C29.4547 34.6354 28.5143 35.5177 28.0879 35.8676ZM32.7678 34.4459C32.6585 34.3438 32.6749 34.0011 33.0412 32.9366C33.1833 32.521 33.5113 31.8211 34.0799 31.1503C34.1455 31.4055 34.1783 31.668 34.1838 31.9377C34.1783 33.5782 33.2981 34.1907 32.7678 34.4459Z" fill="#F5F5F5" stroke="#7427A2" stroke-width="0.5"/>
</svg>
