<svg width="50" height="50" viewBox="0 0 50 50" fill="none" xmlns="http://www.w3.org/2000/svg">
<g clip-path="url(#clip0_22_69)">
<path d="M-1.8625 -5H50.8625C52.0458 -5 53 -4.04576 53 -2.8625V49.8624C53 51.0457 52.0458 51.9999 50.8625 51.9999H-1.8625C-3.04576 51.9999 -4 51.0457 -4 49.8624V-2.8625C-4 -4.04576 -3.04576 -5 -1.8625 -5ZM27.6808 25.3194V20.65H7.4V25.3194H14.6395V46.1345H20.4031V25.3194H27.6808ZM29.9837 45.5874C30.9125 46.0582 32.0067 46.4144 33.279 46.6562C34.5513 46.8979 35.8873 47.0124 37.2868 47.0124C38.6609 47.0124 39.9587 46.8852 41.1929 46.618C42.427 46.3508 43.5085 45.931 44.4373 45.333C45.3661 44.735 46.104 43.9461 46.6511 42.9919C47.1982 42.0377 47.4654 40.829 47.4654 39.404C47.4654 38.3734 47.3127 37.47 46.9946 36.6939C46.6766 35.9178 46.244 35.2307 45.6587 34.62C45.0734 34.0093 44.3737 33.4749 43.5594 32.9915C42.7451 32.508 41.8163 32.0627 40.7984 31.6301C40.0478 31.3247 39.3734 31.0194 38.7754 30.7267C38.1775 30.4341 37.6685 30.1415 37.2614 29.8361C36.8542 29.5308 36.5234 29.2127 36.2944 28.8819C36.0654 28.5511 35.9509 28.1566 35.9509 27.7368C35.9509 27.3424 36.0527 26.9988 36.2562 26.6808C36.4598 26.3627 36.7397 26.0955 37.1087 25.8665C37.4777 25.6375 37.9357 25.4721 38.4701 25.3448C39.0045 25.2176 39.6025 25.154 40.2641 25.154C40.7348 25.154 41.2437 25.1921 41.7781 25.2558C42.3125 25.3194 42.8469 25.4339 43.3812 25.5866C43.9156 25.7392 44.4373 25.9174 44.9462 26.1464C45.4551 26.3754 45.9259 26.6299 46.3458 26.9225V21.6042C45.4806 21.2734 44.5263 21.0317 43.4958 20.8663C42.4652 20.7009 41.2819 20.6245 39.946 20.6245C38.5846 20.6245 37.2996 20.7645 36.0781 21.0571C34.8567 21.3497 33.7879 21.795 32.8719 22.4185C31.9558 23.0419 31.2179 23.818 30.6835 24.7723C30.1491 25.7265 29.8819 26.8716 29.8819 28.1948C29.8819 29.887 30.3781 31.3374 31.3578 32.5334C32.3375 33.7294 33.8388 34.7473 35.8364 35.5743C36.6252 35.8924 37.3504 36.2104 38.0375 36.5158C38.7246 36.8211 39.3098 37.1392 39.7933 37.47C40.2768 37.8008 40.6839 38.1571 40.9638 38.5515C41.2437 38.9459 41.3964 39.3912 41.3964 39.8874C41.3964 40.2564 41.3074 40.5999 41.1292 40.9053C40.9511 41.2106 40.6839 41.4906 40.315 41.7196C39.946 41.9486 39.5007 42.1267 38.9536 42.2667C38.4065 42.4066 37.7703 42.4575 37.0451 42.4575C35.8109 42.4575 34.5768 42.2412 33.3681 41.8086C32.1594 41.376 31.027 40.7272 29.9837 39.862V45.5874Z" fill="#406DA7"/>
<path d="M-1.8625 -5H50.8625C52.0458 -5 53 -4.04576 53 -2.8625V49.8624C53 51.0457 52.0458 51.9999 50.8625 51.9999H-1.8625C-3.04576 51.9999 -4 51.0457 -4 49.8624V-2.8625C-4 -4.04576 -3.04576 -5 -1.8625 -5ZM27.6808 25.3194V20.65H7.4V25.3194H14.6395V46.1345H20.4031V25.3194H27.6808ZM29.9837 45.5874C30.9125 46.0582 32.0067 46.4144 33.279 46.6562C34.5513 46.8979 35.8873 47.0124 37.2868 47.0124C38.6609 47.0124 39.9587 46.8852 41.1929 46.618C42.427 46.3508 43.5085 45.931 44.4373 45.333C45.3661 44.735 46.104 43.9461 46.6511 42.9919C47.1982 42.0377 47.4654 40.829 47.4654 39.404C47.4654 38.3734 47.3127 37.47 46.9946 36.6939C46.6766 35.9178 46.244 35.2307 45.6587 34.62C45.0734 34.0093 44.3737 33.4749 43.5594 32.9915C42.7451 32.508 41.8163 32.0627 40.7984 31.6301C40.0478 31.3247 39.3734 31.0194 38.7754 30.7267C38.1775 30.4341 37.6685 30.1415 37.2614 29.8361C36.8542 29.5308 36.5234 29.2127 36.2944 28.8819C36.0654 28.5511 35.9509 28.1566 35.9509 27.7368C35.9509 27.3424 36.0527 26.9988 36.2562 26.6808C36.4598 26.3627 36.7397 26.0955 37.1087 25.8665C37.4777 25.6375 37.9357 25.4721 38.4701 25.3448C39.0045 25.2176 39.6025 25.154 40.2641 25.154C40.7348 25.154 41.2437 25.1921 41.7781 25.2558C42.3125 25.3194 42.8469 25.4339 43.3812 25.5866C43.9156 25.7392 44.4373 25.9174 44.9462 26.1464C45.4551 26.3754 45.9259 26.6299 46.3458 26.9225V21.6042C45.4806 21.2734 44.5263 21.0317 43.4958 20.8663C42.4652 20.7009 41.2819 20.6245 39.946 20.6245C38.5846 20.6245 37.2996 20.7645 36.0781 21.0571C34.8567 21.3497 33.7879 21.795 32.8719 22.4185C31.9558 23.0419 31.2179 23.818 30.6835 24.7723C30.1491 25.7265 29.8819 26.8716 29.8819 28.1948C29.8819 29.887 30.3781 31.3374 31.3578 32.5334C32.3375 33.7294 33.8388 34.7473 35.8364 35.5743C36.6252 35.8924 37.3504 36.2104 38.0375 36.5158C38.7246 36.8211 39.3098 37.1392 39.7933 37.47C40.2768 37.8008 40.6839 38.1571 40.9638 38.5515C41.2437 38.9459 41.3964 39.3912 41.3964 39.8874C41.3964 40.2564 41.3074 40.5999 41.1292 40.9053C40.9511 41.2106 40.6839 41.4906 40.315 41.7196C39.946 41.9486 39.5007 42.1267 38.9536 42.2667C38.4065 42.4066 37.7703 42.4575 37.0451 42.4575C35.8109 42.4575 34.5768 42.2412 33.3681 41.8086C32.1594 41.376 31.027 40.7272 29.9837 39.862V45.5874Z" stroke="#7427A2" stroke-width="2"/>
<path d="M-4 -4.99992H53V52H-4V-4.99992Z" stroke="#7427A2" stroke-width="2"/>
</g>
<defs>
<clipPath id="clip0_22_69">
<rect width="50" height="50" fill="white"/>
</clipPath>
</defs>
</svg>
